# xmcd
#
# Track frame offsets: 
#        150
#        16030
#        35205
#        51512
#        72042
#        89687
#        104695
#        118920
#        140497
#        158005
#        179780
#        197657
#        213795
#        230584
#        248515
#        266005
#        281755
#        298467
#
# Disc length: 4183 seconds
#
# Revision: 2
# Processed by: cddbd v1.5.2PL0 Copyright (c) Steve Scherf et al.
# Submitted via: ExactAudioCopy v0.95a5
#
DISCID=1f105512
DTITLE=Various Artist - Goldene Schlager-Duette - CD 1
DYEAR=1995
DGENRE=Schlager
TTITLE0=Claudia Jung and Richard Clayderman - Je t'aime mon amour
TTITLE1=Ireen Sheer and Bernhard Brink - Du gehst vor
TTITLE2=Howard Carpendale and Kim Harding - Du bist die Antwort fuer mic
TTITLE2=h
TTITLE3=Stefan Waggershausen and Victor Laszlo - Das erste Mal tat's noc
TTITLE3=h weh
TTITLE4=Daliah Lavi and Karel Gott - Ich bin da, um Dich zu lieben
TTITLE5=Andy Borg and Petra Frey - Zusammen geh'n
TTITLE6=Gino D'Oro and Gaby Baginsky - Viel zu heiss
TTITLE7=Gunter Gabriel and Linda Feller - Wenn ich nur ein Trucker waer'
TTITLE8=Lena Valaitis and Costa Cordalis - Wenn der Regen auf uns faellt
TTITLE9=Stefan Waggershausen and Ofra Haza - Jenseits von Liebe (Love is
TTITLE9=in vain)
TTITLE10=Juergen Renfordt and Denise - Kein Wort zuviel (Don't answer me
TTITLE10=)
TTITLE11=Karel Gott and Darinka - Fang' das Licht
TTITLE12=Udo Juergens and Jenny - Ich wuensch' Dir Liebe ohne Leiden
TTITLE13=Andrea Juergens and Robby Tauber - Mi amor
TTITLE14=Andy Borg and Petra Frey - Ich kann nicht mehr leben ohne Dich
TTITLE15=Siw Inger and Tony Holiday - Liebe ist
TTITLE16=Marion Maerz and Bernd Clüver - Schau' mal herein
TTITLE17=Gino D'Oro and Gaby Baginsky - Ti amo, ti amo
EXTD=
EXTT0=
EXTT1=
EXTT2=
EXTT3=
EXTT4=
EXTT5=
EXTT6=
EXTT7=
EXTT8=
EXTT9=
EXTT10=
EXTT11=
EXTT12=
EXTT13=
EXTT14=
EXTT15=
EXTT16=
EXTT17=
PLAYORDER=
